<svg width="30" height="12" viewBox="0 0 30 12" fill="none" xmlns="http://www.w3.org/2000/svg">
<path d="M-7.87154e-06 11.4193L0.177411 10.7903C0.736551 10.7688 1.15591 10.7204 1.43548 10.6451C1.71505 10.5698 1.91935 10.4408 2.04838 10.258C2.18816 10.0645 2.31182 9.77953 2.41935 9.40318L4.48386 2.01609C4.58064 1.62899 4.6129 1.34404 4.58064 1.16125C4.55913 0.978452 4.42472 0.84942 4.17741 0.774151C3.94085 0.688129 3.55376 0.639742 3.01612 0.62899L3.19354 -4.31538e-05C3.74193 0.0322149 4.65053 0.0483439 5.91935 0.0483439C6.5215 0.0483439 7.06988 0.0429676 7.56451 0.0322149C8.05913 0.0214622 8.46236 0.0107095 8.77419 -4.31538e-05L8.59677 0.62899C8.09139 0.650495 7.69354 0.693506 7.40322 0.758022C7.1129 0.822538 6.89247 0.95157 6.74193 1.14512C6.60214 1.32791 6.47849 1.61824 6.37096 2.01609L4.29031 9.43544C4.18279 9.80103 4.1344 10.0806 4.14515 10.2742C4.15591 10.4569 4.2473 10.5806 4.41935 10.6451C4.60214 10.7096 4.88709 10.7419 5.27419 10.7419H5.62902C6.39246 10.7419 7.03763 10.6451 7.56451 10.4516C8.09139 10.258 8.56988 9.92469 8.99999 9.45157C9.4301 8.9677 9.86021 8.30103 10.2903 7.45157H10.9355C10.6129 8.29028 10.3441 9.02684 10.129 9.66125C9.92472 10.2849 9.75806 10.8709 9.62902 11.4193C9.05913 11.3978 8.45698 11.3871 7.82257 11.3871C7.19892 11.3763 6.47849 11.3709 5.66128 11.3709C4.41397 11.3709 3.31182 11.3763 2.35483 11.3871C1.40859 11.3871 0.623648 11.3978 -7.87154e-06 11.4193ZM11.1914 11.4193L11.3688 10.7903C11.8849 10.7688 12.2882 10.7096 12.5785 10.6129C12.8796 10.5161 13.1108 10.3548 13.272 10.129C13.4333 9.90318 13.5731 9.58598 13.6914 9.17738L15.6753 2.03221C15.7828 1.64512 15.8151 1.36017 15.772 1.17738C15.7398 0.983828 15.6 0.84942 15.3527 0.774151C15.1161 0.688129 14.7344 0.639742 14.2075 0.62899L14.3849 -4.31538e-05C14.6108 0.0107095 14.9118 0.0214622 15.2882 0.0322149C15.6753 0.0429676 16.1215 0.0483439 16.6269 0.0483439C17.0355 0.0483439 17.4118 0.0429676 17.7559 0.0322149C18.1 0.0214622 18.3849 0.0107095 18.6108 -4.31538e-05L19.4172 9.40318L18.9172 9.48383L24.7075 -4.31538e-05C25.0409 0.0214622 25.3473 0.0375912 25.6269 0.0483439C25.9172 0.0483439 26.2183 0.0483439 26.5301 0.0483439C27.0892 0.0483439 27.6 0.0429676 28.0624 0.0322149C28.5247 0.0214622 28.8903 0.0107095 29.1591 -4.31538e-05L28.9817 0.62899C28.4226 0.650495 27.9978 0.698882 27.7075 0.774151C27.428 0.838667 27.2183 0.967699 27.0785 1.16125C26.9495 1.3548 26.8258 1.64512 26.7075 2.03221L24.6753 9.38705C24.5677 9.7634 24.5301 10.0483 24.5624 10.2419C24.5946 10.4354 24.7344 10.5698 24.9817 10.6451C25.229 10.7204 25.6161 10.7688 26.143 10.7903L25.9656 11.4193C25.6753 11.3978 25.2989 11.3871 24.8366 11.3871C24.3742 11.3763 23.8419 11.3709 23.2398 11.3709C22.6376 11.3709 22.1054 11.3763 21.643 11.3871C21.1806 11.3871 20.8204 11.3978 20.5624 11.4193L20.7398 10.7903C21.2344 10.7688 21.6108 10.7204 21.8688 10.6451C22.1269 10.5698 22.3204 10.4354 22.4495 10.2419C22.5785 10.0376 22.6914 9.75264 22.7882 9.38705L25.1753 0.822538H24.9172L18.3688 11.5H17.7882L16.8527 1.0806H16.5946L14.3366 9.17738C14.229 9.59673 14.1914 9.91931 14.2237 10.1451C14.2559 10.3709 14.3957 10.5322 14.643 10.629C14.8903 10.715 15.2559 10.7688 15.7398 10.7903L15.5624 11.4193C15.3581 11.4086 15.0677 11.3978 14.6914 11.3871C14.3258 11.3763 13.9226 11.3709 13.4817 11.3709C13.0086 11.3709 12.5731 11.3763 12.1753 11.3871C11.7774 11.3978 11.4495 11.4086 11.1914 11.4193Z" fill="#C5865B"/>
</svg>
